<svg xmlns="http://www.w3.org/2000/svg" version="1.1" xmlns:xlink="http://www.w3.org/1999/xlink" xmlns:svgjs="http://svgjs.dev/svgjs" viewBox="0 0 11.387753003013236 5.930547965281891"><g transform="matrix(0.8042795374395904,0,0,0.8042795374395904,5.625438410075603,2.1049911986104464)"><g transform="matrix(1,0,0,1,0,0)" clip-path="url(#SvgjsClipPath8529)"><g clip-path="url(#SvgjsClipPath8527db388959-9ca2-460b-b8b1-0a1f493c0dc8)"><path d=" M -1.402846578486209 1.4981388904984154 C -1.4814748577174952 1.3906130385581954 -1.5725358135793686 1.286111351203794 -1.6946784610177126 1.2273081509239865 C -1.8111087975717322 1.1711930969426843 -1.9409798656182788 1.1443116339576287 -2.070010887946543 1.1438076065266594 C -2.1976978371255544 1.1433035790956896 -2.326896868597475 1.1685049506441785 -2.4426551685768683 1.2232759314762283 C -2.7077735972669736 1.3491147800750172 -2.8536055339608972 1.615745291058031 -2.8492372962258252 1.9052250455783422 C -2.848733268794856 1.9384908560223475 -2.84654914992732 1.9717566664663537 -2.8430209579105314 2.0046864586230457 C -2.8201717143732346 2.0700420155054604 -2.790602105089674 2.1325414169457138 -2.7553201849217897 2.191176608081865 C -2.6320014734778496 2.3959797541992525 -2.4376148942671705 2.5549164040983903 -2.2029061205789087 2.6310245461748276 C -2.4147656507298736 2.5571005229659263 -2.6204088425655443 2.392955589613434 -2.640065912373366 2.0638256771901666 C -2.6486343786998523 1.9213539233693755 -2.6390578575114265 1.7750179592444821 -2.592351315574893 1.6392665711699541 C -2.5570693954070087 1.5367809935394319 -2.4997782774201105 1.4342954159089096 -2.410901440425772 1.3694438864574643 C -2.406197184403387 1.3660837035843327 -2.4014929283810025 1.3627235207112007 -2.396788672358618 1.3595313469817252 C -2.3966206632149616 1.3595313469817252 -2.3964526540713047 1.3595313469817252 -2.3964526540713047 1.3595313469817252 C -2.380659794567585 1.3491147800750163 -2.364362907632895 1.3395382588865905 -2.347561993267236 1.3311378017037612 C -2.102604661815922 1.2078190902598211 -1.785571407735929 1.245789156726211 -1.559095082086841 1.3906130385581954 C -1.5034840555365085 1.4260629678697367 -1.4977717446521845 1.4342954159089092 -1.4508971935719948 1.4804979304144723 C -1.4194794837082116 1.511411612847286 -1.3857096458332365 1.5399731672689065 -1.3536198993948267 1.5702148131270937 C -1.3695807680422032 1.5460214964405443 -1.385877654976893 1.5218281797539945 -1.4030145876298659 1.4983068996420719 Z" fill="#4e888f" transform="matrix(1,0,0,1,0,0)" fill-rule="nonzero"></path></g><g clip-path="url(#SvgjsClipPath8527db388959-9ca2-460b-b8b1-0a1f493c0dc8)"><path d=" M -1.724248070301273 0.484539726818185 C -1.6499880288050588 0.5463670916838117 -1.5705197038554894 0.6026501548087704 -1.4947475800663659 0.6624614099505179 C -1.5342297288256654 0.6123946851408528 -1.5742159050159343 0.5624959694748444 -1.6160501817864268 0.5144453543890588 C -1.80825264212957 0.29368133962429455 -2.0268325380267984 0.0823258369042994 -2.3050556799221176 -0.02385594188666773 C -2.5701741086122225 -0.12499744636793708 -2.8594858539888772 -0.15943932081753887 -3.1417412153319546 -0.13675808642389864 C -3.421308430376527 -0.11424486117391508 -3.6991955539845325 -0.03511255451165951 -3.9421367757119676 0.10651915359084918 C -4.499087086933576 0.43144883742270146 -4.768405744215096 1.0418260563271065 -4.704898287912903 1.6743804821941821 C -4.69767389473567 1.7469604322538306 -4.686585291254334 1.8193723731698226 -4.6726405323308375 1.890944268367532 C -4.610309140034241 2.029719821027878 -4.534200997957805 2.1609349622236778 -4.445996197538093 2.2827415913747084 C -4.687761355259931 0.9225395643309251 -3.8421713352362943 0.4114557493275668 -3.8164659362568356 0.39616691725481656 C -3.815961908825866 0.3959989081111599 -3.815793899682209 0.39583089896750345 -3.815793899682209 0.39583089896750345 C -3.7833681349564863 0.3699574908443879 -3.7492622787941983 0.3462682015888081 -3.713980358626313 0.32459502205710766 C -3.2008804338990755 0.009241859413681386 -2.5004503139947363 0.03326716695657406 -1.9777738680790726 0.307962116835105 C -1.8495828914690913 0.3753337834413992 -1.835638132545594 0.3919666886634019 -1.724416079444929 0.48453972681818525 Z" fill="#4e888f" transform="matrix(1,0,0,1,0,0)" fill-rule="nonzero"></path></g><g clip-path="url(#SvgjsClipPath8527db388959-9ca2-460b-b8b1-0a1f493c0dc8)"><path d=" M -2.3473939841235794 1.3309697925601047 C -2.364194898489239 1.339370249742934 -2.380659794567585 1.3489467709313598 -2.3962846449276483 1.3593633378380687 C -2.3962846449276483 1.3593633378380687 -2.3962846449276483 1.3593633378380687 -2.3966206632149616 1.3593633378380687 C -2.401324919237346 1.3627235207112007 -2.406029175259731 1.3659156944406758 -2.4107334312821154 1.3692758773138083 C -2.4997782774201105 1.4341274067652532 -2.556901386263352 1.5366129843957754 -2.592183306431237 1.6390985620262977 C -2.63888984836777 1.7748499501008257 -2.6482983604125394 1.9213539233693755 -2.6398979032297096 2.0636576680465106 C -2.6202408334218883 2.392787580469778 -2.4145976415862176 2.55693251382227 -2.2027381114352527 2.630856537031171 C -2.202066074860626 2.6310245461748276 -2.201562047429656 2.6311925553184845 -2.201058019998687 2.631360564462141 C -2.1296541339446344 2.6543778171430943 -2.05438603758648 2.669666649215844 -1.9764297949298206 2.676387014962108 C -1.9068740094559908 2.6822673349900885 -1.8384942879877566 2.680923261840836 -1.771794657956089 2.673194841232633 C -1.5925289016745037 2.652025689131902 -1.4260318403108188 2.5833099493763556 -1.2869202693631596 2.4789762711656103 C -1.8475667817452135 2.6799152069788965 -2.1543514780621535 2.3475931208261542 -2.1543514780621535 2.3475931208261542 C -2.2586851562728985 2.231162784272134 -2.348234029841863 2.0888590395949995 -2.3604986973287945 1.9294183622648924 C -2.380995812854899 1.6602677141270288 -2.170648364996843 1.4250549130077972 -1.9102341923291224 1.384732718530215 C -1.7114793753833721 1.3538190360974016 -1.4937395252044268 1.428583105024586 -1.351603789670948 1.5713908771326905 C -1.3690767406112339 1.5456854781532319 -1.3887338104190556 1.5290525729312292 -1.4043586607791183 1.513427722571166 C -1.451233211859308 1.4670571989219465 -1.5031480372491952 1.4257269495824243 -1.558759063799528 1.3902770202708825 C -1.7854033985922735 1.245453138438899 -2.102268643528609 1.2074830719725087 -2.347225974979923 1.3308017834164483 Z" fill="#dce2e3" transform="matrix(1,0,0,1,0,0)" fill-rule="nonzero"></path></g><g clip-path="url(#SvgjsClipPath8527db388959-9ca2-460b-b8b1-0a1f493c0dc8)"><path d=" M -3.102427075716312 2.5130821273278983 C -3.3522566723336666 2.2778693262086676 -3.5748687876786533 1.9830132790913448 -3.631319859947269 1.6364104157277923 C -3.7264130352569014 1.0514025775155327 -3.3099183681322053 0.49781244916705614 -2.747591764313586 0.36105300623058856 C -2.318496411414645 0.2565513188761872 -1.8282457302247042 0.3795340120328139 -1.4907153606186077 0.665653583679993 C -1.5335576922510392 0.6127307034281659 -1.5797602067566023 0.5798009112714737 -1.617058236648366 0.5487192196950039 C -1.7282802897490313 0.4561461815402206 -1.8495828914690922 0.3753337834413992 -1.977773868079073 0.307962116835105 C -2.5004503139947363 0.03326716695657428 -3.2008804338990755 0.009241859413681386 -3.713980358626314 0.32459502205710766 C -3.7492622787941983 0.34626820158880833 -3.7833681349564867 0.3699574908443881 -3.8157938996822094 0.39583089896750345 C -3.8157938996822094 0.39583089896750345 -3.815961908825866 0.3959989081111601 -3.8164659362568356 0.39616691725481656 C -3.8421713352362947 0.41145574932756657 -4.687929364403588 0.9225395643309247 -4.445996197538093 2.2827415913747084 C -4.138203446359213 2.7079727339695476 -3.683234685337157 3.019293677165216 -3.1556859742554524 3.142108361178185 C -3.1543419011062 3.142444379465498 -3.152997827956947 3.1427803977528126 -3.151821763951351 3.1429484068964686 C -2.991205022615647 3.1799104185009193 -2.8238679155336794 3.1995674883087406 -2.6519945615729847 3.1995674883087406 C -2.4987702225581705 3.1995674883087406 -2.349242084703802 3.1839426379486775 -2.2049222303027878 3.1543730286651175 C -1.8166530993123997 3.0747366945718917 -1.4653459799264623 2.89328681942277 -1.1802344631412223 2.639256994214 C -2.3695711910862505 3.183102592230394 -3.102427075716312 2.5130821273278983 -3.102427075716312 2.5130821273278983 Z" fill="#dce2e3" transform="matrix(1,0,0,1,0,0)" fill-rule="nonzero"></path></g><g clip-path="url(#SvgjsClipPath8527db388959-9ca2-460b-b8b1-0a1f493c0dc8)"><path d=" M -1.0458271482159476 2.216882007061324 C -1.0265060966954391 2.204449330430736 -1.0070170360312738 2.191176608081865 -0.9876959845107653 2.1773998583020244 C -1.0053369445947085 2.188824480070673 -1.023313922965964 2.199913083552008 -1.041626919624532 2.2103296504587173 C -1.0972379461748654 2.242083378609813 -1.156209155598329 2.269132850738525 -1.217196474745673 2.2911420485575387 C -1.3430353233444619 2.3366725264884756 -1.4776106474133934 2.360865843175025 -1.611345925764042 2.3617058888933076 C -1.6205864286651548 2.3617058888933076 -1.6296589224226108 2.3617058888933076 -1.6387314161800668 2.3615378797496516 C -1.7566738350269957 2.3405367367925773 -1.8322779496724628 2.2955102862926102 -1.8322779496724628 2.2955102862926102 C -1.9932307092954802 2.193360726949401 -2.1244458504912793 2.0411444427965266 -2.1244458504912793 1.840877543557867 C -2.1244458504912793 1.7825783707090288 -2.11503733844651 1.7239431795728777 -2.094876241207719 1.669004189597172 C -2.046657616978276 1.5371170118267456 -1.9369476461705206 1.436479534776446 -1.797836075222861 1.4089260352167647 C -1.784395343730333 1.4062378889182594 -1.7711226213814628 1.4043897883380367 -1.7578498990325917 1.4030457151887843 C -1.6128580080569517 1.3896049836962563 -1.490883369762264 1.4610088697503087 -1.3791572892306294 1.549549688457334 C -1.3784852526560032 1.5500537158883034 -1.3779812252250334 1.5503897341756168 -1.3773091886504063 1.5508937616065865 C -1.3685727131802636 1.557782136496507 -1.3601722559974339 1.5646705113864274 -1.3516037896709476 1.5717268954200043 C -1.3521078171019179 1.571222867989035 -1.3527798536765436 1.5707188405580652 -1.3532838811075134 1.5700468039834385 C -1.3537879085384836 1.5697107856961252 -1.354123926825797 1.5692067582651559 -1.3546279542567667 1.5688707399778425 C -1.3667246126000414 1.5567740816345679 -1.3793252983742859 1.545181450722263 -1.3924300115795 1.5344288655282408 C -1.4243517488742534 1.507547402543186 -1.4594656598984814 1.4836901041439492 -1.4964276715029317 1.463360997761502 C -1.511212476144712 1.4549605405786719 -1.5263332990738054 1.4474001291141256 -1.541958149433869 1.4403437450805483 C -1.6570444128386352 1.3874208648287212 -1.7872514991724957 1.366083703584334 -1.9104022014727793 1.3850687368175292 C -2.1709843832841558 1.4253909312951114 -2.381163821998555 1.6604357232706866 -2.3606667064724505 1.9295863714085493 C -2.357306523599319 1.9737727761902337 -2.3478980115545496 2.016951126109978 -2.3339532526310522 2.058449384593157 C -2.3334492252000825 2.0597934577424097 -2.3329451977691127 2.061137530891662 -2.332441170338143 2.062481604040915 C -2.448535488604849 1.935634700580187 -2.5359002433062776 1.7745139318135132 -2.580254657231619 1.6046566875766972 C -2.5863029864032563 1.5819754531830568 -2.59151126985661 1.5589582005021034 -2.595879507591682 1.5359409478211505 C -2.6084801933659265 1.4705853909387354 -2.6145285225375643 1.404557797481694 -2.613184449388311 1.339034231455622 C -2.6101602848024927 1.179425544981858 -2.564125779440586 1.0240170870995091 -2.4638243206776 0.8931379641910224 C -2.2588531654165553 0.6260034257770382 -1.8480708091761833 0.45110590723052413 -1.5488465243237894 0.6261714349206948 C -1.5322136191017863 0.6357479561091204 -1.515916732167097 0.6465005413031426 -1.5001238726633774 0.6585971996464175 C -1.4984437812268117 0.6596052545083573 -1.4969316989339019 0.6607813185139533 -1.4954196166409925 0.6619573825195493 C -1.5007959092380037 0.6577571539281348 -1.5063402109786712 0.6535569253367197 -1.5117165035756819 0.6493566967453048 C -1.5187728876092588 0.6439804041482942 -1.525829271642836 0.638604111551283 -1.532885655676413 0.6332278189542719 C -1.6394034527546935 0.553759494004703 -1.7533136521538641 0.484707735961843 -1.8732721807246717 0.43548105687046124 C -1.8813366196201882 0.4322888831409861 -1.8892330493720482 0.4290967094115108 -1.897297488267565 0.4260725448256919 C -2.0577462204596118 0.36424517996006545 -2.228947537845681 0.338707790124263 -2.4083813032709234 0.37163758228095567 C -2.4377829034108274 0.3768458657343101 -2.4675205218380447 0.38373424062423056 -2.4974261494089185 0.3923027069507168 C -2.796482425117655 0.4783233885028928 -3.0177504673133893 0.7189124822191351 -3.0988988836995244 1.0167926939222758 C -3.1325007124308426 1.1406154327971856 -3.142413251906582 1.2704865008437323 -3.131492657568903 1.3983414591664003 C -3.1103235054681724 1.6473310100654723 -2.9992694615111635 1.8546542933377093 -2.838988738462773 2.0226634369943026 C -2.8134513486269714 2.0493768908357013 -2.7867378947855728 2.07508228981516 -2.759016386082235 2.0997796339326795 C -2.7136539172949545 2.1402698375539186 -2.6654352930655123 2.178071894876652 -2.615032549968534 2.21318580590088 C -2.5490049565114927 2.259388320406444 -2.479281161894006 2.3010545880332787 -2.4075412575526407 2.3385206270686996 C -2.4075412575526407 2.3385206270686996 -2.259693211134838 2.4100925222664085 -2.0315367940491837 2.440334168124595 C -1.8932652688198073 2.520810547936104 -1.64057951676029 2.6061591929136534 -1.2872562876504738 2.4793122894529254 C -1.1941792220647205 2.4097565039790956 -1.1131988148222418 2.324239849857889 -1.0491873310890805 2.226458528249751 C -1.0475072396525147 2.2242744093822155 -1.0461631665032618 2.22209029051468 -1.0449871024976654 2.2199061716471444 C -1.056075705979001 2.226122509962438 -1.0673323186039925 2.2320028299904187 -1.0787569403726405 2.237715140874743 C -1.0678363460349622 2.2309947751284795 -1.0569157516972831 2.224106400238559 -1.0459951573596054 2.217050016204982 Z" fill="#404040" transform="matrix(1,0,0,1,0,0)" fill-rule="nonzero"></path></g><g clip-path="url(#SvgjsClipPath8527db388959-9ca2-460b-b8b1-0a1f493c0dc8)"><path d=" M -1.5419581494338686 1.4401757359368905 C -1.6084897703218792 1.4104381175096732 -1.6805656929505584 1.395149285436923 -1.7580179081762481 1.403045715188783 C -1.7712906305251188 1.404221779194379 -1.7845633528739904 1.406069879774602 -1.7980040843665175 1.4089260352167639 C -1.937115655314177 1.4363115256327883 -2.0468256261219326 1.5371170118267448 -2.0950442503513753 1.6690041895971706 C -2.11503733844651 1.7239431795728772 -2.1246138596349358 1.782578370709028 -2.1246138596349358 1.8408775435578661 C -2.1246138596349358 2.0411444427965257 -1.9933987184391357 2.1933607269493995 -1.8324459588161193 2.295510286292609 C -1.8324459588161193 2.295510286292609 -1.746929304694913 2.346417056820557 -1.6160501817864268 2.3652340809100956 C -1.50785229327158 2.380858931270159 -1.368572713180264 2.3743065746675516 -1.2212286941934312 2.298702460022084 C -1.2082919901318734 2.2921501034194773 -1.1951872769266592 2.2849257102422436 -1.182082563721445 2.2770292804903836 C -1.3401791679022992 2.3622099163242765 -1.5525427254842343 2.360697834031367 -1.6990466987527837 2.258716283831815 C -1.8828487019130975 2.13069331636549 -1.9646691548738584 1.815340153722064 -1.8022043129579322 1.6370824523024177 C -1.6997187353274104 1.5245163260525003 -1.5085243298462063 1.4611768788939643 -1.3793252983742854 1.5493816793136759 C -1.3786532617996592 1.5498857067446457 -1.378149234368689 1.550221725031959 -1.3774771977940627 1.5507257524629288 C -1.3685727131802632 1.556942090778223 -1.360004246853777 1.5638304656681434 -1.3517717988146036 1.5715588862763465 C -1.3527798536765432 1.5707188405580634 -1.3537879085384832 1.5697107856961243 -1.3547959634004223 1.5687027308341848 C -1.3986463498947934 1.528212527212946 -1.4456889101186396 1.4915865338958083 -1.4965956806465877 1.4630249794741874 C -1.5113804852883677 1.4546245222913576 -1.5265013082174614 1.4470641108268114 -1.5421261585775246 1.440007726793234 Z" fill="#bab9b4" transform="matrix(1,0,0,1,0,0)" fill-rule="nonzero"></path></g><g clip-path="url(#SvgjsClipPath8527db388959-9ca2-460b-b8b1-0a1f493c0dc8)"><path d=" M -0.8337996089213258 2.0537451285707715 C -0.8805061508578591 2.0999476430763346 -0.9322529671040902 2.141277892415857 -0.9878639936544222 2.1775678674456813 C -1.6975346164598744 2.6834433989956854 -2.40754125755264 2.3385206270686982 -2.40754125755264 2.3385206270686982 C -2.778841465033712 2.1451421027199586 -3.094362636820795 1.836341296679139 -3.1314926575689026 1.398341459166399 C -3.1424132519065813 1.270486500843731 -3.132500712430842 1.1406154327971838 -3.0988988836995235 1.016792693922274 C -3.0177504673133884 0.7189124822191335 -2.7964824251176545 0.47832338850289124 -2.4974261494089176 0.39230270695071523 C -2.1210856676181473 0.28410481843586877 -1.793299828344133 0.45631419068387724 -1.4907153606186072 0.665653583679993 C -1.8282457302247037 0.3795340120328139 -2.3184964114146447 0.2565513188761872 -2.7475917643135856 0.36105300623058856 C -3.309918368132205 0.49781244916705614 -3.7264130352569005 1.0514025775155327 -3.6313198599472685 1.6364104157277923 C -3.5748687876786533 1.9830132790913448 -3.352256672333666 2.2778693262086676 -3.102427075716311 2.5130821273278983 C -3.102427075716311 2.5130821273278983 -2.369571191086249 3.183102592230395 -1.1802344631412214 2.639256994214 C -0.858496953038844 2.352801404279508 -0.62093202390842 1.9737727761902328 -0.509541961664099 1.5438373775730088 C -0.5836339940166573 1.7328476641866768 -0.6898157728076235 1.911273374749979 -0.8337996089213249 2.0537451285707706 Z" fill="#bab9b4" transform="matrix(1,0,0,1,0,0)" fill-rule="nonzero"></path></g><g clip-path="url(#SvgjsClipPath8527db388959-9ca2-460b-b8b1-0a1f493c0dc8)"><path d=" M -2.643594104390154 3.3133096785642544 C -3.8806454291336543 3.3133096785642544 -4.887188208780308 2.3067668989176013 -4.887188208780308 1.0695475650304447 C -4.887188208780308 -0.16767176885671264 -3.8806454291336543 -1.174046539359709 -2.643594104390154 -1.174046539359709 C -1.4065427796466543 -1.174046539359709 -0.40000000000000036 -0.16750375971305553 -0.40000000000000036 1.0695475650304447 C -0.40000000000000036 2.3065988897739444 -1.4065427796466543 3.3131416694205984 -2.643594104390154 3.3131416694205984 Z M -2.643594104390154 -1.0060373957031152 C -3.788072390978871 -1.0060373957031152 -4.719179065123714 -0.0749307215582724 -4.719179065123714 1.0695475650304447 C -4.719179065123714 2.2140258516191613 -3.788072390978871 3.1451325257640046 -2.6435941043901536 3.1451325257640046 C -1.4991158178014365 3.1451325257640046 -0.5680091436565933 2.2140258516191613 -0.5680091436565933 1.0695475650304442 C -0.5680091436565933 -0.07493072155827307 -1.498947808657781 -1.0060373957031152 -2.643594104390154 -1.0060373957031152 Z" fill="#404040" transform="matrix(1,0,0,1,0,0)" fill-rule="nonzero"></path></g></g><g><path d=" M 0.027099609375 0 L 0.208740234375 0 L 0.29296875 0.755859375 L 0.302490234375 0.932373046875 L 0.32080078125 0.932373046875 L 0.33837890625 0.73388671875 L 0.47314453125 0 L 0.624755859375 0 L 0.753662109375 0.73388671875 L 0.768310546875 0.932373046875 L 0.787353515625 0.932373046875 L 0.796142578125 0.755859375 L 0.873046875 0 L 1.055419921875 0 L 0.88037109375 1.2509765625 L 0.687744140625 1.2509765625 L 0.58447265625 0.649658203125 L 0.55224609375 0.38818359375 L 0.53759765625 0.38818359375 L 0.506103515625 0.649658203125 L 0.397705078125 1.2509765625 L 0.207275390625 1.2509765625 L 0.027099609375 0 M 1.3278808593750002 0 L 1.5461425781250002 0 L 1.7775878906250002 1.2509765625 L 1.5856933593750002 1.2509765625 L 1.5512695312500002 1.02685546875 L 1.3227539062500002 1.02685546875 L 1.2897949218750002 1.2509765625 L 1.0971679687500002 1.2509765625 L 1.3278808593750002 0 M 1.5292968750000002 0.884033203125 L 1.4414062500000002 0.2607421875 L 1.4333496093750002 0.2607421875 L 1.3447265625000002 0.884033203125 L 1.5292968750000002 0.884033203125 M 1.8054199218750002 0 L 1.9995117187500002 0 L 2.13720703125 0.990966796875 L 2.145263671875 0.990966796875 L 2.28369140625 0 L 2.47705078125 0 L 2.249267578125 1.2509765625 L 2.032470703125 1.2509765625 L 1.8054199218750002 0 M 2.597900390625 0 L 3.0615234375 0 L 3.0615234375 0.1494140625 L 2.78759765625 0.1494140625 L 2.78759765625 0.523681640625 L 2.999267578125 0.523681640625 L 2.999267578125 0.673095703125 L 2.78759765625 0.673095703125 L 2.78759765625 1.1015625 L 3.06884765625 1.1015625 L 3.06884765625 1.2509765625 L 2.597900390625 1.2509765625 L 2.597900390625 0 M 3.205810546875 0 L 3.3955078125 0 L 3.3955078125 1.1015625 L 3.654052734375 1.1015625 L 3.654052734375 1.2509765625 L 3.205810546875 1.2509765625 L 3.205810546875 0 M 3.9228515625 0.834228515625 L 3.6708984375 0 L 3.862060546875 0 L 4.01513671875 0.598388671875 L 4.02392578125 0.598388671875 L 4.175537109375 0 L 4.365966796875 0 L 4.112548828125 0.834228515625 L 4.112548828125 1.2509765625 L 3.9228515625 1.2509765625 L 3.9228515625 0.834228515625 M 4.622314453125 0.62109375 L 4.393798828125 0 L 4.5966796875 0 L 4.713134765625 0.39990234375 L 4.720458984375 0.39990234375 L 4.8369140625 0 L 5.033203125 0 L 4.803955078125 0.621826171875 L 5.033203125 1.2509765625 L 4.837646484375 1.2509765625 L 4.718994140625 0.848876953125 L 4.70654296875 0.848876953125 L 4.582763671875 1.2509765625 L 4.393798828125 1.2509765625 L 4.622314453125 0.62109375" fill="#404040" fill-rule="nonzero"></path></g><g><path d=" M 0.2869762073863636 1.7257776988636362 Q 0.2976296164772727 1.7663938210227272 0.2976296164772727 1.8154993785511362 Q 0.2976296164772727 1.8646049360795454 0.289306640625 1.9067191938920454 Q 0.28098366477272724 1.9488334517045454 0.26600230823863635 1.984622247869318 Q 0.2510209517045454 2.0204110440340908 0.23021351207386362 2.0492085404829545 Q 0.2094060724431818 2.0780060369318183 0.1841042258522727 2.0983140980113637 Q 0.1318359375 2.1402618963068183 0.07057883522727272 2.1402618963068183 Q 0.06092418323863636 2.1402618963068183 0.05809437144886363 2.134102894176136 Q 0.055264559659090905 2.1279438920454545 0.055264559659090905 2.1192879971590908 L 0.055264559659090905 2.0906569602272724 Q 0.055264559659090905 2.070015980113636 0.05509810014204545 2.0405526455965908 Q 0.05493164062499999 2.0110893110795454 0.054765181107954544 1.9749675958806818 Q 0.05459872159090909 1.938845880681818 0.05409934303977272 1.9000608132102272 Q 0.05359996448863636 1.8612757457386362 0.05310058593749999 1.8218248401988637 Q 0.05260120738636363 1.7823739346590908 0.051935369318181816 1.7464186789772727 Q 0.04993785511363636 1.6718448153409091 0.04727450284090909 1.6288982599431816 Q 0.045609907670454544 1.606259765625 0.06724964488636363 1.6035964133522727 Q 0.0992098721590909 1.598935546875 0.11985085227272727 1.598935546875 Q 0.2536843039772727 1.598935546875 0.2869762073863636 1.7257776988636362 M 0.08855646306818181 2.1089675071022724 Q 0.12617631392045453 2.107635830965909 0.16346324573863635 2.0766743607954545 Q 0.23271040482954544 2.019079367897727 0.25601473721590906 1.9048881392045454 Q 0.2640047940340909 1.865603693181818 0.2640047940340909 1.8158322975852272 Q 0.2640047940340909 1.7660609019886362 0.2518532492897727 1.7292733487215908 Q 0.23970170454545453 1.6924857954545454 0.2203924005681818 1.6705131392045454 Q 0.1841042258522727 1.6292311789772727 0.12684215198863635 1.6292311789772727 Q 0.10187322443181818 1.6292311789772727 0.08622602982954544 1.6345578835227272 Q 0.08356267755681818 1.6688485440340908 0.08356267755681818 1.730771484375 Q 0.08356267755681818 1.8050124289772727 0.08389559659090909 1.844296875 Q 0.084228515625 1.8835813210227272 0.08472789417613635 1.921201171875 Q 0.08522727272727272 1.9588210227272727 0.08572665127840909 1.9932781427556818 Q 0.08622602982954544 2.0277352627840908 0.08689186789772727 2.0550346235795454 Q 0.087890625 2.089325284090909 0.08855646306818181 2.1089675071022724 M 0.41198730468749994 1.9564905894886362 L 0.41265314275568177 2.074676846590909 Q 0.41265314275568177 2.0906569602272724 0.41265314275568177 2.1019762073863637 Q 0.4129860617897727 2.106969992897727 0.4129860617897727 2.110632102272727 Q 0.49688165838068177 2.110632102272727 0.5245139382102272 2.10796875 Q 0.5531449751420454 2.1049724786931816 0.5578058416193181 2.1063041548295454 Q 0.5624667080965908 2.107635830965909 0.5657958984375 2.110632102272727 Q 0.5724542791193181 2.1166246448863637 0.5724542791193181 2.1237824041193183 Q 0.5724542791193181 2.1309401633522724 0.5661288174715908 2.1361004083806816 Q 0.5598033558238635 2.1412606534090908 0.5484841086647727 2.140594815340909 Q 0.4938853870738636 2.136266867897727 0.4499400745738636 2.1390966796875 Q 0.4059947620738636 2.1419264914772724 0.40066805752840906 2.1427587890625 Q 0.3953413529829545 2.143591086647727 0.3911798650568181 2.1427587890625 Q 0.38701837713068177 2.1419264914772724 0.3836891867897727 2.1392631392045454 Q 0.37603204900568177 2.133603515625 0.3766978870738636 2.1226171875 Q 0.38169167258522724 2.026403586647727 0.38169167258522724 1.9097154651988635 Q 0.38169167258522724 1.79302734375 0.3818581321022727 1.7628981711647727 Q 0.3820245916193181 1.7327689985795454 0.3820245916193181 1.7078000710227272 Q 0.3813587535511363 1.6542001065340908 0.37969415838068177 1.6320609907670454 Q 0.37802956321022724 1.609921875 0.38052645596590906 1.6055939275568183 Q 0.3830233487215909 1.6012659801136362 0.3866854580965909 1.5992684659090908 Q 0.3916792436079545 1.5969380326704545 0.3993363813920454 1.5982697088068183 Q 0.4133189808238636 1.6006001420454545 0.4362903941761363 1.6006001420454545 Q 0.4805686257102272 1.6006001420454545 0.4967151988636363 1.5987690873579545 Q 0.5128617720170454 1.5969380326704545 0.5175226384943181 1.5984361683238637 Q 0.5221835049715908 1.5999343039772727 0.5251797762784091 1.60259765625 Q 0.5318381569602272 1.6079243607954545 0.5318381569602272 1.6155814985795454 Q 0.5318381569602272 1.6232386363636362 0.5258456143465908 1.628232421875 Q 0.5198530717329545 1.6332262073863637 0.5095325816761362 1.6327268288352272 Q 0.4992120916193181 1.6322274502840908 0.4875599254261363 1.6313951526988637 Q 0.4759077592329545 1.6305628551136362 0.4625909978693181 1.6298970170454545 Q 0.43462579900568177 1.6288982599431816 0.4139848188920454 1.6305628551136362 Q 0.4139848188920454 1.6595268110795454 0.4136518998579545 1.6881578480113637 Q 0.4133189808238636 1.7221155894886362 0.4129860617897727 1.7570720880681818 Q 0.41198730468749994 1.850955255681818 0.41198730468749994 1.89556640625 Q 0.4536021839488636 1.89556640625 0.4732444069602272 1.8935688920454545 Q 0.4945512251420454 1.891238458806818 0.5000443892045454 1.89556640625 Q 0.5055375532670454 1.8998943536931818 0.5055375532670454 1.9072185724431818 Q 0.5055375532670454 1.9255291193181818 0.47124689275568177 1.92486328125 Q 0.4642555930397727 1.9245303622159091 0.4585959694602272 1.9245303622159091 L 0.4316295276988636 1.924197443181818 L 0.41198730468749994 1.924197443181818 L 0.41198730468749994 1.9564905894886362 M 0.6655051491477273 1.9564905894886362 L 0.6661709872159091 2.074676846590909 Q 0.6661709872159091 2.0906569602272724 0.6661709872159091 2.1019762073863637 Q 0.66650390625 2.106969992897727 0.66650390625 2.110632102272727 Q 0.7503995028409091 2.110632102272727 0.7780317826704545 2.10796875 Q 0.8066628196022727 2.1049724786931816 0.8113236860795454 2.1063041548295454 Q 0.8159845525568181 2.107635830965909 0.8193137428977273 2.110632102272727 Q 0.8259721235795454 2.1166246448863637 0.8259721235795454 2.1237824041193183 Q 0.8259721235795454 2.1309401633522724 0.8196466619318181 2.1361004083806816 Q 0.8133212002840908 2.1412606534090908 0.802001953125 2.140594815340909 Q 0.7474032315340908 2.136266867897727 0.7034579190340908 2.1390966796875 Q 0.6595126065340908 2.1419264914772724 0.6541859019886364 2.1427587890625 Q 0.6488591974431818 2.143591086647727 0.6446977095170454 2.1427587890625 Q 0.6405362215909091 2.1419264914772724 0.63720703125 2.1392631392045454 Q 0.6295498934659091 2.133603515625 0.6302157315340908 2.1226171875 Q 0.6352095170454545 2.026403586647727 0.6352095170454545 1.9097154651988635 Q 0.6352095170454545 1.79302734375 0.6353759765625 1.7628981711647727 Q 0.6355424360795454 1.7327689985795454 0.6355424360795454 1.7078000710227272 Q 0.6348765980113636 1.6542001065340908 0.6332120028409091 1.6320609907670454 Q 0.6315474076704545 1.609921875 0.6340443004261364 1.6055939275568183 Q 0.6365411931818181 1.6012659801136362 0.6402033025568181 1.5992684659090908 Q 0.6451970880681818 1.5969380326704545 0.6528542258522727 1.5982697088068183 Q 0.6668368252840908 1.6006001420454545 0.6898082386363636 1.6006001420454545 Q 0.7340864701704545 1.6006001420454545 0.7502330433238635 1.5987690873579545 Q 0.7663796164772727 1.5969380326704545 0.7710404829545454 1.5984361683238637 Q 0.7757013494318181 1.5999343039772727 0.7786976207386364 1.60259765625 Q 0.7853560014204545 1.6079243607954545 0.7853560014204545 1.6155814985795454 Q 0.7853560014204545 1.6232386363636362 0.7793634588068181 1.628232421875 Q 0.7733709161931818 1.6332262073863637 0.7630504261363635 1.6327268288352272 Q 0.7527299360795454 1.6322274502840908 0.7410777698863635 1.6313951526988637 Q 0.7294256036931818 1.6305628551136362 0.7161088423295454 1.6298970170454545 Q 0.6881436434659091 1.6288982599431816 0.6675026633522727 1.6305628551136362 Q 0.6675026633522727 1.6595268110795454 0.6671697443181818 1.6881578480113637 Q 0.6668368252840908 1.7221155894886362 0.66650390625 1.7570720880681818 Q 0.6655051491477273 1.850955255681818 0.6655051491477273 1.89556640625 Q 0.7071200284090908 1.89556640625 0.7267622514204545 1.8935688920454545 Q 0.7480690696022727 1.891238458806818 0.7535622336647727 1.89556640625 Q 0.7590553977272727 1.8998943536931818 0.7590553977272727 1.9072185724431818 Q 0.7590553977272727 1.9255291193181818 0.7247647372159091 1.92486328125 Q 0.7177734375 1.9245303622159091 0.7121138139204545 1.9245303622159091 L 0.6851473721590908 1.924197443181818 L 0.6655051491477273 1.924197443181818 L 0.6655051491477273 1.9564905894886362 M 0.9230180220170454 1.9924458451704545 Q 0.9256813742897727 2.0726793323863637 0.9270130504261364 2.1159588068181816 Q 0.9273459694602273 2.1272780539772724 0.9215198863636364 2.1327712180397724 Q 0.9156938032670454 2.1382643821022724 0.9088689630681818 2.1382643821022724 Q 0.9020441228693181 2.1382643821022724 0.8967174183238636 2.1331041370738637 Q 0.8913907137784091 2.1279438920454545 0.8913907137784091 2.1166246448863637 L 0.8913907137784091 2.0413849431818183 L 0.8910577947443181 1.9381800426136362 L 0.8910577947443181 1.8456285511363635 Q 0.8910577947443181 1.7550745738636362 0.8895596590909091 1.7304385653409091 Q 0.8880615234375 1.7058025568181818 0.8873956853693181 1.6931516335227272 Q 0.8867298473011364 1.6805007102272727 0.8857310901988636 1.6673504083806818 Q 0.8847323330965909 1.6542001065340908 0.8839000355113636 1.6415491832386362 Q 0.8830677379261364 1.6288982599431816 0.8855646306818181 1.6242373934659091 Q 0.8880615234375 1.6195765269886362 0.8917236328125 1.6174125532670454 Q 0.8953857421875 1.6152485795454545 0.8993807705965909 1.6145827414772727 Q 0.9033757990056818 1.6139169034090908 0.9163596413352273 1.6105877130681816 Q 0.9573086825284091 1.6006001420454545 0.9889359907670454 1.6006001420454545 Q 1.0205632990056819 1.6006001420454545 1.0425359552556819 1.6085901988636362 Q 1.0645086115056819 1.6165802556818183 1.0801558061079546 1.6328932883522727 Q 1.1134477095170454 1.6671839488636362 1.1134477095170454 1.730771484375 Q 1.1134477095170454 1.8173304332386362 1.0528564453125 1.8895738636363635 Q 1.0039173473011362 1.9478346946022727 0.9230180220170454 1.9924458451704545 M 0.9220192649147727 1.960818536931818 Q 1.0828191583806819 1.87359375 1.0828191583806819 1.733767755681818 Q 1.0828191583806819 1.656863458806818 1.0295521129261362 1.6348908025568183 Q 0.9899347478693181 1.6185777698863637 0.9333385120738636 1.6378870738636362 Q 0.9266801313920454 1.6402175071022727 0.9206875887784091 1.6425479403409091 Q 0.9183571555397727 1.700808771306818 0.9183571555397727 1.7623987926136362 L 0.9183571555397727 1.8629403409090908 Q 0.9183571555397727 1.869265802556818 0.9186900745738636 1.8752583451704545 Q 0.9190229936079546 1.8812508877840908 0.919189453125 1.8880757279829545 Q 0.9193559126420454 1.894900568181818 0.9198552911931818 1.9057204367897727 Q 0.9203546697443181 1.9165403053977272 0.9210205078125 1.9328533380681818 Q 0.9213534268465909 1.9445055042613635 0.9220192649147727 1.960818536931818 M 1.2714177911931819 1.6831640625 Q 1.2639271129261365 1.6475417258522727 1.2599320845170454 1.6288982599431816 Q 1.2559370561079546 1.6102547940340908 1.2624289772727273 1.6037628728693183 Q 1.2689208984375 1.5972709517045454 1.2775767933238635 1.5972709517045454 Q 1.2942227450284092 1.5972709517045454 1.2983842329545454 1.6252361505681816 Q 1.3025457208806819 1.653201349431818 1.3085382634943181 1.6866597123579545 Q 1.3145308061079546 1.7201180752840908 1.3213556463068181 1.7567391690340908 Q 1.3281804865056819 1.7933602627840908 1.3355047052556819 1.8311465731534091 Q 1.3428289240056819 1.8689328835227272 1.3499866832386362 1.9050545987215908 Q 1.3571444424715908 1.9411763139204545 1.3641357421875 1.9738023792613635 Q 1.3711270419034092 2.006428444602273 1.3771195845170454 2.0327290482954545 Q 1.3844438032670454 2.0660209517045454 1.3891046697443181 2.0836656605113637 Q 1.3984264026988635 2.045712890625 1.4144065163352273 1.9837899502840908 Q 1.4347145774147727 1.9055539772727272 1.4462002840909092 1.8602769886363635 Q 1.4576859907670454 1.815 1.4676735617897727 1.7730522017045454 Q 1.4889803799715908 1.682498224431818 1.4963045987215908 1.6322274502840908 Q 1.4993008700284092 1.6072585227272727 1.5179443359375 1.6079243607954545 Q 1.5312610973011362 1.6085901988636362 1.5349232066761362 1.6259019886363637 Q 1.5515691583806817 1.7011416903409091 1.5688809481534092 1.7883664772727272 Q 1.5861927379261362 1.8755912642045454 1.5933504971590908 1.9112136008522727 Q 1.6005082563920454 1.9468359375 1.6070001775568181 1.9786297052556818 Q 1.6134920987215908 2.0104234730113637 1.6188188032670454 2.0360582386363637 Q 1.6258101029829546 2.0690172230113637 1.6308038884943181 2.0869948508522724 Q 1.6364635120738635 2.0633575994318183 1.6434548117897727 2.0340607244318183 Q 1.6527765447443181 1.9934446022727272 1.6630970348011362 1.9481676136363635 Q 1.6734175248579546 1.902890625 1.6840709339488635 1.8556161221590908 Q 1.6947243430397727 1.8083416193181818 1.7040460759943181 1.7643963068181818 Q 1.7243541370738635 1.668515625 1.7313454367897727 1.6199094460227272 Q 1.7350075461647727 1.5946075994318183 1.7519864169034092 1.5959392755681816 Q 1.7666348544034092 1.5966051136363637 1.7666348544034092 1.6139169034090908 Q 1.7666348544034092 1.6205752840909091 1.762306906960227 1.6388858309659091 Q 1.7579789595170454 1.6571963778409091 1.7498224431818181 1.6943168501420454 Q 1.7416659268465908 1.7314373224431818 1.7330100319602273 1.7705553089488637 Q 1.7243541370738635 1.8096732954545454 1.7153653231534092 1.8494571200284091 Q 1.7063765092329546 1.8892409446022727 1.6978870738636362 1.9265278764204545 Q 1.6893976384943181 1.9638148082386362 1.6817405007102273 1.9971067116477272 Q 1.6740833629261362 2.0303986150568183 1.6677579012784092 2.056366299715909 Q 1.6537753018465908 2.113961292613636 1.6501131924715908 2.122284268465909 Q 1.6427889737215908 2.139928977272727 1.6304709694602273 2.139928977272727 Q 1.6158225319602273 2.139928977272727 1.6108287464488635 2.122284268465909 Q 1.5848610617897727 2.030731534090909 1.5663840553977273 1.9390123401988635 Q 1.5479070490056819 1.847293146306818 1.5402499112215908 1.8083416193181818 Q 1.5325927734375 1.770388849431818 1.5169455788352273 1.6854944957386362 Q 1.4933083274147727 1.79302734375 1.4763294566761362 1.8602769886363635 Q 1.4580189098011362 1.9325204190340908 1.4493630149147727 1.968142755681818 Q 1.4277232776988635 2.05669921875 1.4130748401988635 2.122284268465909 Q 1.4114102450284092 2.1306072443181816 1.4047518643465908 2.1352681107954545 Q 1.3980934836647727 2.139928977272727 1.3911021839488635 2.139928977272727 Q 1.3744562322443181 2.139928977272727 1.3694624467329546 2.122284268465909 Q 1.3385009765625 2.005096768465909 1.3087047230113635 1.861941583806818 Q 1.2789084694602273 1.7187863991477272 1.2714177911931819 1.6831640625 M 1.8838223544034092 1.7023069069602272 Q 1.8836558948863638 1.7204509943181818 1.8836558948863638 1.8482919034090908 Q 1.8836558948863638 1.9761328125 1.8876509232954546 2.1172904829545454 Q 1.8879838423295454 2.1279438920454545 1.8814919211647727 2.133603515625 Q 1.875 2.1392631392045454 1.8678422407670454 2.1392631392045454 Q 1.860684481534091 2.1392631392045454 1.855191317471591 2.1342693536931816 Q 1.849698153409091 2.1292755681818183 1.8503639914772727 2.1119637784090908 Q 1.8510298295454546 2.0946519886363637 1.8516956676136365 2.0640234375 Q 1.8523615056818183 2.033394886363636 1.85302734375 1.9987713068181818 Q 1.8543590198863638 1.9301899857954545 1.8543590198863638 1.8707639382102272 Q 1.8543590198863638 1.811337890625 1.8541925603693183 1.7782124467329545 Q 1.8540261008522727 1.7450870028409091 1.853360262784091 1.7171218039772727 Q 1.8523615056818183 1.6551988636363637 1.849698153409091 1.6182448508522727 Q 1.8486993963068183 1.6075914417613637 1.8535267223011365 1.6024311967329545 Q 1.8583540482954546 1.5972709517045454 1.8660111860795454 1.5972709517045454 Q 1.8736683238636365 1.5972709517045454 1.8803267045454546 1.6024311967329545 Q 1.8869850852272727 1.6075914417613637 1.8864857066761365 1.6199094460227272 Q 1.885986328125 1.6322274502840908 1.8854869495738638 1.6442125355113637 Q 1.8849875710227273 1.6561976207386362 1.884488192471591 1.6701802201704545 Q 1.8839888139204546 1.6841628196022727 1.8838223544034092 1.7023069069602272 M 2.0579390092329546 1.6009330610795454 Q 2.0672607421875 1.6009330610795454 2.1777898615056817 1.5982697088068183 Q 2.1931041370738638 1.5982697088068183 2.198763760653409 1.609921875 Q 2.2000954367897725 1.6132510653409091 2.2000954367897725 1.6175790127840908 Q 2.2000954367897725 1.6219069602272727 2.195101651278409 1.6264013671875 Q 2.1901078657670454 1.6308957741477272 2.1764581853693183 1.6305628551136362 Q 2.162808504971591 1.6302299360795454 2.149991122159091 1.6295640980113637 Q 2.137173739346591 1.6288982599431816 2.126187411221591 1.6285653409090908 Q 2.106545188210227 1.6278995028409091 2.092562588778409 1.628232421875 Q 2.0898992365056817 1.7048037997159091 2.0898992365056817 1.7943590198863637 Q 2.0898992365056817 1.8902397017045454 2.090065696022727 1.9256955788352272 Q 2.0902321555397725 1.9611514559659091 2.0908979936079546 1.9934446022727272 Q 2.091896750710227 2.0760085227272724 2.0928955078125 2.1159588068181816 Q 2.093228426846591 2.1272780539772724 2.087735262784091 2.1327712180397724 Q 2.082242098721591 2.1382643821022724 2.0757501775568183 2.1382643821022724 Q 2.0692582563920454 2.1382643821022724 2.0630992542613638 2.1331041370738637 Q 2.0569402521306817 2.1279438920454545 2.0569402521306817 2.117623401988636 L 2.056607333096591 2.074011008522727 L 2.0599365234375 1.7560733309659091 Q 2.0599365234375 1.6671839488636362 2.0576060901988638 1.628232421875 Q 2.0399613813920454 1.6278995028409091 2.015658291903409 1.6295640980113637 Q 1.9870272549715908 1.6315616122159091 1.9742098721590908 1.6323939098011362 Q 1.9613924893465908 1.6332262073863637 1.9560657848011362 1.628232421875 Q 1.9507390802556819 1.6232386363636362 1.9507390802556819 1.6167467151988637 Q 1.9507390802556819 1.6102547940340908 1.9560657848011362 1.6039293323863637 Q 1.9613924893465908 1.5976038707386362 1.9732111150568181 1.5981032492897727 Q 1.9850297407670454 1.5986026278409091 1.9936856356534092 1.598935546875 Q 2.0023415305397725 1.5992684659090908 2.0088334517045454 1.5996013849431816 Q 2.0153253728693183 1.5999343039772727 2.0203191583806817 1.6002672230113637 Q 2.0253129438920454 1.6006001420454545 2.0304731889204546 1.6007666015625 Q 2.0356334339488638 1.6009330610795454 2.0422918146306817 1.6009330610795454 L 2.0579390092329546 1.6009330610795454 M 2.4452903053977275 1.7690571732954545 L 2.4449573863636362 1.7164559659090908 Q 2.4449573863636362 1.7038050426136362 2.444790926846591 1.6893230646306818 Q 2.4446244673295454 1.6748410866477272 2.4444580078125 1.6580286754261362 Q 2.4442915482954546 1.6412162642045454 2.4439586292613638 1.6254026100852272 Q 2.443625710227273 1.6095889559659091 2.449618252840909 1.6045951704545454 Q 2.4556107954545454 1.5996013849431816 2.4622691761363638 1.5996013849431816 Q 2.4689275568181817 1.5996013849431816 2.4744207208806817 1.6045951704545454 Q 2.4799138849431817 1.6095889559659091 2.479580965909091 1.6202423650568183 Q 2.4742542613636362 1.8050124289772727 2.4742542613636362 1.9098819247159091 Q 2.4742542613636362 2.078671875 2.476584694602273 2.1182892400568183 Q 2.4772505326704546 2.128942649147727 2.4717573686079546 2.1342693536931816 Q 2.4662642045454546 2.139596058238636 2.4597722833806817 2.139596058238636 Q 2.453280362215909 2.139596058238636 2.4481201171875 2.134435813210227 Q 2.442959872159091 2.1292755681818183 2.4432927911931817 2.118622159090909 Q 2.4446244673295454 2.009091796875 2.4452903053977275 1.9305229048295454 Q 2.4156605113636362 1.927859552556818 2.3643909801136362 1.927859552556818 Q 2.311123934659091 1.927859552556818 2.285489169034091 1.9308558238636362 Q 2.285822088068182 2.0313973721590908 2.2878196022727275 2.1166246448863637 Q 2.2881525213068183 2.1276109730113637 2.282159978693182 2.133270596590909 Q 2.2761674360795454 2.1389302201704545 2.269342595880682 2.1389302201704545 Q 2.2625177556818183 2.1389302201704545 2.2571910511363638 2.1337699751420454 Q 2.251864346590909 2.128609730113636 2.252530184659091 2.110299183238636 Q 2.253196022727273 2.091988636363636 2.2538618607954546 2.0576979758522724 Q 2.2545276988636362 2.023407315340909 2.2551935369318183 1.9847887073863635 Q 2.255859375 1.9198694957386362 2.255859375 1.8519540127840908 Q 2.255859375 1.7840385298295454 2.2556929154829546 1.7562397904829545 Q 2.255526455965909 1.7284410511363637 2.2551935369318183 1.7054696377840908 Q 2.2541947798295454 1.6695143821022727 2.2511985085227275 1.6222398792613637 Q 2.2505326704545454 1.6115864701704545 2.256525213068182 1.6064262251420454 Q 2.2625177556818183 1.6012659801136362 2.2698419744318183 1.6012659801136362 Q 2.2771661931818183 1.6012659801136362 2.2831587357954546 1.6064262251420454 Q 2.289151278409091 1.6115864701704545 2.288485440340909 1.6270672052556816 Q 2.2878196022727275 1.6425479403409091 2.2871537642045454 1.6645205965909091 Q 2.2864879261363638 1.6864932528409091 2.286155007102273 1.7129603160511362 Q 2.285822088068182 1.7394273792613637 2.285822088068182 1.7717205255681818 Q 2.285489169034091 1.8020161576704545 2.285489169034091 1.899228515625 Q 2.307461825284091 1.9025577059659091 2.3650568181818183 1.9025577059659091 Q 2.420321377840909 1.9025577059659091 2.4452903053977275 1.899228515625 Q 2.4452903053977275 1.8865775923295454 2.4452903053977275 1.8749254261363635 L 2.4452903053977275 1.7690571732954545 M 2.7099609374999996 1.9668110795454545 L 2.7106267755681817 1.825986328125 Q 2.7106267755681817 1.7061354758522727 2.702969637784091 1.6229057173295454 Q 2.701970880681818 1.6122523082386362 2.7082963423295454 1.6070920632102272 Q 2.7146218039772725 1.6019318181818183 2.7227783203124996 1.6019318181818183 Q 2.730934836647727 1.6019318181818183 2.7375932173295454 1.6070920632102272 Q 2.7442515980113633 1.6122523082386362 2.7435857599431817 1.6297305575284091 Q 2.7429199218749996 1.6472088068181818 2.7420876242897725 1.6740087890625 Q 2.7412553267045454 1.700808771306818 2.7405894886363633 1.730771484375 Q 2.7392578124999996 1.7906969105113637 2.7392578124999996 1.8393030894886362 Q 2.7392578124999996 1.8879092684659091 2.7394242720170454 1.9057204367897727 Q 2.739590731534091 1.9235316051136362 2.7399236505681817 1.9401775568181818 Q 2.7415882457386362 2.0287340198863637 2.7499112215909087 2.0523712713068183 Q 2.7582341974431817 2.0760085227272724 2.7692205255681817 2.088659446022727 Q 2.7911931818181817 2.113961292613636 2.8258167613636362 2.113961292613636 Q 2.8614390980113633 2.113961292613636 2.884743430397727 2.0876606889204545 Q 2.9087136008522725 2.060361328125 2.9127086292613633 2.011422230113636 Q 2.9163707386363633 1.9514968039772727 2.9163707386363633 1.9152086292613635 Q 2.9163707386363633 1.8789204545454545 2.916204279119318 1.8524533913352272 Q 2.9160378196022725 1.825986328125 2.915371981534091 1.79302734375 Q 2.9127086292613633 1.697146661931818 2.9100452769886362 1.620908203125 Q 2.909712357954545 1.6102547940340908 2.9157049005681817 1.6052610085227272 Q 2.921697443181818 1.6002672230113637 2.9293545809659087 1.6002672230113637 Q 2.9370117187499996 1.6002672230113637 2.943337180397727 1.6052610085227272 Q 2.949662642045454 1.6102547940340908 2.9493297230113633 1.620908203125 Q 2.9479980468749996 1.6705131392045454 2.947831587357954 1.7187863991477272 Q 2.9476651278409087 1.7670596590909091 2.947332208806818 1.8146670809659091 Q 2.9466663707386362 1.9301899857954545 2.9430042613636362 1.9806272194602272 Q 2.9393421519886362 2.031064453125 2.931851473721591 2.05669921875 Q 2.924360795454545 2.082333984375 2.910378196022727 2.1023091264204545 Q 2.8790838068181817 2.146920276988636 2.826149680397727 2.146920276988636 Q 2.738591974431818 2.146920276988636 2.7169522372159087 2.0500408380681816 Q 2.7099609374999996 2.019745205965909 2.7099609374999996 1.9824582741477272 L 2.7099609374999996 1.9668110795454545 M 3.0457097833806817 1.986453302556818 Q 3.0573619495738633 1.986453302556818 3.0603582208806817 1.9954421164772727 Q 3.0633544921874996 2.004430930397727 3.0633544921874996 2.0250719105113637 Q 3.0633544921874996 2.045712890625 3.069014115767045 2.063690518465909 Q 3.074673739346591 2.0816681463068183 3.084661310369318 2.0939861505681816 Q 3.1049693714488633 2.118622159090909 3.1409246271306817 2.118622159090909 Q 3.1768798828124996 2.118622159090909 3.198186700994318 2.0921550958806816 Q 3.2194935191761362 2.0656880326704545 3.2194935191761362 2.016083096590909 Q 3.2194935191761362 1.949832208806818 3.1632302024147725 1.8982297585227272 Q 3.1472500887784087 1.8835813210227272 3.130437677556818 1.869265802556818 Q 3.113625266335227 1.8549502840909091 3.0976451526988633 1.8396360085227272 Q 3.0816650390624996 1.8243217329545454 3.069014115767045 1.8056782670454545 Q 3.0413818359374996 1.7647292258522727 3.0413818359374996 1.7124609375 Q 3.0413818359374996 1.6588609730113637 3.0730091441761362 1.6259019886363637 Q 3.1043035333806817 1.5932759232954545 3.151578036221591 1.5932759232954545 Q 3.1921941583806817 1.5932759232954545 3.2181618430397725 1.6205752840909091 Q 3.2471257990056817 1.6518696732954545 3.244795365767045 1.7071342329545454 Q 3.244462446732954 1.7097975852272727 3.2446289062499996 1.7127938565340908 Q 3.244795365767045 1.7157901278409091 3.243963068181818 1.7241131036931818 Q 3.243130770596591 1.7324360795454545 3.2369717684659087 1.7389280007102272 Q 3.230812766335227 1.745419921875 3.2236550071022725 1.745419921875 Q 3.216497247869318 1.745419921875 3.211503462357954 1.7389280007102272 Q 3.206509676846591 1.7324360795454545 3.208174272017045 1.7217826704545454 Q 3.212502219460227 1.6974795809659091 3.212502219460227 1.6849951171875 Q 3.212502219460227 1.6725106534090908 3.2080078124999996 1.66119140625 Q 3.2035134055397725 1.6498721590909091 3.1951904296874996 1.6412162642045454 Q 3.177212801846591 1.6229057173295454 3.1485817649147725 1.6229057173295454 Q 3.1169544566761362 1.6229057173295454 3.0969793146306817 1.6445454545454545 Q 3.0750066583806817 1.668515625 3.0750066583806817 1.7034721235795454 Q 3.0750066583806817 1.7384286221590908 3.0826637961647725 1.7599018998579545 Q 3.0903209339488633 1.781375177556818 3.1028053977272725 1.7986869673295454 Q 3.1152898615056817 1.8159987571022727 3.131269975142045 1.8303142755681818 Q 3.1472500887784087 1.8446297940340908 3.1637295809659087 1.8586123934659091 Q 3.1802090731534087 1.8725949928977272 3.1961891867897725 1.8874098899147727 Q 3.2121693004261362 1.902224786931818 3.224820223721591 1.9202024147727272 Q 3.2524525035511362 1.960818536931818 3.2524525035511362 2.013752663352273 Q 3.2524525035511362 2.0756756036931816 3.2204922762784087 2.1126296164772724 Q 3.1888649680397725 2.1492507102272724 3.135930841619318 2.1492507102272724 Q 3.0866588245738633 2.1492507102272724 3.0556973544034087 2.111297940340909 Q 3.0264004794034087 2.0756756036931816 3.0264004794034087 2.031064453125 Q 3.0264004794034087 1.986453302556818 3.0457097833806817 1.986453302556818" fill="#4e888f" fill-rule="nonzero"></path></g></g><defs><clipPath id="SvgjsClipPath8529"><path d=" M -4.887188208780308 -1.174046539359709 h 4.487188208780307 v 4.487356217923963 h -4.487188208780307 Z"></path></clipPath><clipPath id="SvgjsClipPath8527db388959-9ca2-460b-b8b1-0a1f493c0dc8"><path d=" M -4.887188208780308 -1.174046539359709 L -0.40000000000000036 -1.174046539359709 L -0.40000000000000036 3.3133096785642544 L -4.887188208780308 3.3133096785642544 Z"></path></clipPath></defs></svg>